<svg width="70" height="70" viewBox="0 0 70 70" fill="none" xmlns="http://www.w3.org/2000/svg">
<g clip-path="url(#clip0_7_121)">
<path d="M4.92795 25.676C18.8509 25.704 38.8919 26.32 52.8149 26.054C51.3169 27.566 49.8329 29.099 48.3979 30.674C44.6109 34.832 50.7709 41.027 54.5789 36.855C58.7859 32.242 63.2939 27.93 67.9139 23.744C70.0909 21.77 69.4539 19.152 67.7529 17.626C67.4589 17.192 67.0809 16.793 66.5909 16.443C62.2929 13.356 58.1769 10.052 54.1449 6.636C49.8679 3.017 43.6519 9.17 47.9639 12.817C49.7559 14.336 51.5759 15.827 53.4099 17.297C39.2909 17.591 19.0539 16.961 4.93495 16.94C-0.707053 16.926 -0.707053 25.669 4.92795 25.676ZM65.0719 43.162C50.9529 43.19 30.7159 43.82 16.5969 43.526C18.4309 42.056 20.2509 40.565 22.0429 39.046C26.3479 35.399 20.1319 29.246 15.8619 32.865C11.8229 36.281 7.70695 39.585 3.41595 42.672C2.92595 43.022 2.54795 43.428 2.25395 43.855C0.552947 45.381 -0.0910532 47.992 2.09295 49.973C6.71295 54.166 11.2209 58.478 15.4279 63.084C19.2359 67.256 25.4029 61.061 21.6089 56.903C20.1739 55.328 18.6899 53.795 17.1919 52.283C31.1149 52.549 51.1559 51.933 65.0789 51.905C70.7069 51.898 70.7069 43.155 65.0719 43.162Z" fill="#EFF1DB"/>
</g>
<defs>
<clipPath id="clip0_7_121">
<rect width="70" height="70" fill="white"/>
</clipPath>
</defs>
</svg>
